<svg xmlns="http://www.w3.org/2000/svg" width="360" height="210" viewBox="0 0 360 210" fill="none"><defs><filter id="shadow" x="-30%" y="-30%" width="160%" height="180%"><feDropShadow dx="0" dy="5" stdDeviation="6" flood-color="#24415e" flood-opacity=".07"/></filter></defs><rect x="12" y="12" width="336" height="186" rx="16" fill="#f6f9fd" stroke="#e1e8f1"/><g filter="url(#shadow)"><rect x="35" y="43" width="171" height="90" rx="10" fill="#fff" stroke="#d7e2ef"/><circle cx="61" cy="66" r="11" fill="#eaf2ff" stroke="none"/><circle cx="61" cy="63" r="3" fill="#6896d6" stroke="none"/><path d="M55 72 q0 -6 6 -6 q6 0 6 6" fill="none" stroke="#6896d6" stroke-width="1.5" stroke-linecap="round" stroke-linejoin="round"/><path d="M84 61 H180 M84 73 H159" fill="none" stroke="#bdcde0" stroke-width="3" stroke-linecap="round" stroke-linejoin="round"/><path d="M52 96 H162 M52 108 H140" fill="none" stroke="#b0c6e1" stroke-width="3" stroke-linecap="round" stroke-linejoin="round"/><rect x="92" y="141" width="133" height="32" rx="9" fill="#eaf3ff" stroke="#c5d9f4"/><path d="M108 157 H150 M161 157 H205" fill="none" stroke="#699ee2" stroke-width="3" stroke-linecap="round" stroke-linejoin="round"/></g><circle cx="260" cy="102" r="47" fill="#fff" stroke="#c7dbf6"/><circle cx="260" cy="102" r="37" fill="#f4f8ff" stroke="none"/><path d="M260 70 A32 32 0 0 1 292 102" fill="none" stroke="#1a73e8" stroke-width="4" stroke-linecap="round" stroke-linejoin="round"/><path d="M260 68 V74 M292 102 H286 M260 136 V130 M228 102 H234" fill="none" stroke="#b4cdec" stroke-width="2" stroke-linecap="round" stroke-linejoin="round"/><path d="M260 83 V102 L274 111" fill="none" stroke="#1a73e8" stroke-width="2.5" stroke-linecap="round" stroke-linejoin="round"/><rect x="235" y="153" width="51" height="22" rx="11" fill="#fff" stroke="#d5e3f5"/><text x="260" y="168" text-anchor="middle" font-family="Arial,sans-serif" font-size="11" font-weight="700" fill="#1a73e8">15 min</text></svg>
